<svg xmlns="http://www.w3.org/2000/svg" viewBox="0 0 512 512">
  <rect width="512" height="512" fill="#000000" rx="108" ry="108"/>
  <path d="M 367.9 389.3 L 365.4 390.3 L 363.2 391.5 L 361.1 392.8 L 358.9 394.1 L 356.8 395.4 L 354.6 396.6 L 352.5 397.8 L 350.3 399.0 L 348.1 400.2 L 346.0 401.4 L 343.8 402.5 L 341.6 403.6 L 339.3 404.7 L 337.1 405.7 L 334.9 406.7 L 332.6 407.7 L 330.4 408.6 L 328.1 409.6 L 325.8 410.5 L 323.5 411.3 L 321.2 412.1 L 318.9 412.9 L 316.6 413.7 L 314.3 414.4 L 312.0 415.1 L 309.6 415.8 L 307.3 416.4 L 304.9 417.1 L 302.6 417.6 L 300.2 418.2 L 297.8 418.7 L 295.5 419.1 L 293.1 419.6 L 290.7 420.0 L 288.3 420.4 L 285.9 420.7 L 283.5 421.0 L 281.1 421.3 L 278.7 421.5 L 276.3 421.7 L 273.9 421.9 L 271.5 422.0 L 269.1 422.1 L 266.7 422.2 L 264.3 422.2 L 262.0 422.2 L 259.6 422.2 L 257.2 422.1 L 254.8 422.1 L 252.4 421.9 L 250.0 421.8 L 247.6 421.6 L 245.2 421.3 L 242.9 421.1 L 240.5 420.8 L 238.1 420.4 L 235.8 420.1 L 233.4 419.7 L 231.1 419.2 L 228.8 418.8 L 226.4 418.3 L 224.1 417.7 L 221.8 417.2 L 219.5 416.6 L 217.2 416.0 L 215.0 415.3 L 212.7 414.6 L 210.4 413.9 L 208.2 413.1 L 206.0 412.3 L 203.7 411.5 L 201.5 410.7 L 199.3 409.8 L 197.2 408.9 L 195.0 408.0 L 192.8 407.0 L 190.7 406.0 L 188.6 405.0 L 186.5 403.9 L 184.4 402.8 L 182.3 401.7 L 180.3 400.5 L 178.2 399.4 L 176.2 398.2 L 174.2 396.9 L 172.2 395.7 L 170.3 394.4 L 168.3 393.1 L 166.4 391.7 L 164.5 390.4 L 162.6 389.0 L 160.8 387.6 L 158.9 386.1 L 157.1 384.6 L 155.3 383.1 L 153.5 381.6 L 151.8 380.1 L 150.1 378.5 L 148.4 376.9 L 146.7 375.3 L 145.0 373.7 L 143.4 372.0 L 141.8 370.3 L 140.2 368.6 L 138.6 366.9 L 137.1 365.1 L 135.6 363.4 L 134.1 361.6 L 132.7 359.8 L 131.2 357.9 L 129.8 356.1 L 128.5 354.2 L 127.1 352.3 L 125.8 350.4 L 124.5 348.5 L 123.3 346.5 L 122.0 344.6 L 120.8 342.6 L 119.7 340.6 L 118.5 338.6 L 117.4 336.6 L 116.3 334.6 L 115.2 332.5 L 114.2 330.4 L 113.2 328.4 L 112.3 326.3 L 111.3 324.2 L 110.4 322.0 L 109.5 319.9 L 108.7 317.8 L 107.9 315.6 L 107.1 313.5 L 106.3 311.3 L 105.6 309.1 L 104.9 306.9 L 104.3 304.7 L 103.7 302.5 L 103.1 300.3 L 102.5 298.1 L 102.0 295.8 L 101.5 293.6 L 101.0 291.4 L 100.6 289.1 L 100.2 286.9 L 99.8 284.6 L 99.5 282.3 L 99.2 280.1 L 98.9 277.8 L 98.7 275.5 L 98.5 273.3 L 98.3 271.0 L 98.2 268.7 L 98.1 266.4 L 98.0 264.1 L 98.0 261.9 L 98.0 259.6 L 98.0 257.3 L 98.0 255.0 L 98.1 252.8 L 98.3 250.5 L 98.4 248.2 L 98.6 246.0 L 98.8 243.7 L 99.1 241.4 L 99.4 239.2 L 99.7 236.9 L 100.0 234.7 L 100.4 232.5 L 100.8 230.2 L 101.3 228.0 L 101.7 225.8 L 102.3 223.6 L 102.8 221.4 L 103.4 219.2 L 104.0 217.0 L 104.6 214.9 L 105.3 212.7 L 106.0 210.6 L 106.7 208.4 L 107.4 206.3 L 108.2 204.2 L 109.0 202.1 L 109.9 200.0 L 110.8 197.9 L 111.7 195.8 L 112.6 193.8 L 113.6 191.8 L 114.6 189.7 L 115.6 187.7 L 116.6 185.7 L 117.7 183.8 L 118.8 181.8 L 119.9 179.9 L 121.1 178.0 L 122.3 176.0 L 123.5 174.2 L 124.7 172.3 L 126.0 170.4 L 127.3 168.6 L 128.6 166.8 L 129.9 165.0 L 131.3 163.2 L 132.7 161.5 L 134.1 159.7 L 135.6 158.0 L 137.0 156.3 L 138.5 154.7 L 140.0 153.0 L 141.6 151.4 L 143.1 149.8 L 144.7 148.2 L 146.3 146.7 L 147.9 145.2 L 149.6 143.6 L 151.2 142.2 L 152.9 140.7 L 154.6 139.3 L 156.3 137.9 L 158.1 136.5 L 159.9 135.1 L 161.6 133.8 L 163.4 132.5 L 165.3 131.2 L 167.1 130.0 L 169.0 128.8 L 170.8 127.6 L 172.7 126.4 L 174.6 125.2 L 176.5 124.1 L 178.5 123.0 L 180.4 122.0 L 182.4 121.0 L 184.4 120.0 L 186.3 119.0 L 188.3 118.0 L 190.4 117.1 L 192.4 116.3 L 194.4 115.4 L 196.5 114.6 L 198.5 113.8 L 200.6 113.0 L 202.7 112.3 L 204.8 111.6 L 206.9 110.9 L 209.0 110.3 L 211.1 109.6 L 213.2 109.1 L 215.4 108.5 L 217.5 108.0 L 219.7 107.5 L 221.8 107.0 L 224.0 106.6 L 226.1 106.2 L 228.3 105.9 L 230.5 105.5 L 232.7 105.2 L 234.8 104.9 L 237.0 104.7 L 239.2 104.5 L 241.4 104.3 L 243.6 104.2 L 245.8 104.1 L 248.0 104.0 L 250.2 103.9 L 252.3 103.9 L 254.5 103.9 L 256.7 104.0 L 258.9 104.0 L 261.1 104.2 L 263.3 104.3 L 265.5 104.5 L 267.6 104.7 L 269.8 104.9 L 272.0 105.2 L 274.2 105.5 L 276.3 105.8 L 278.5 106.1 L 280.6 106.5 L 282.8 106.9 L 284.9 107.4 L 287.0 107.9 L 289.1 108.4 L 291.2 108.9 L 293.3 109.5 L 295.4 110.1 L 297.5 110.7 L 299.6 111.4 L 301.7 112.1 L 303.7 112.8 L 305.8 113.5 L 307.8 114.3 L 309.8 115.1 L 311.8 115.9 L 313.8 116.8 L 315.8 117.7 L 317.7 118.6 L 319.7 119.6 L 321.6 120.5 L 323.6 121.5 L 325.5 122.6 L 327.4 123.6 L 329.2 124.7 L 331.1 125.8 L 332.9 126.9 L 334.8 128.1 L 336.6 129.3 L 338.4 130.5 L 340.1 131.7 L 341.9 133.0 L 343.6 134.3 L 345.3 135.6 L 347.0 136.9 L 348.7 138.3 L 350.4 139.7 L 352.0 141.1 L 353.6 142.5 L 355.2 144.0 L 356.8 145.4 L 358.3 146.9 L 359.9 148.5 L 361.4 150.0 L 362.8 151.6 L 364.3 153.1 L 365.7 154.7 L 367.2 156.4 L 368.5 158.0 L 369.9 159.7 L 371.2 161.3 L 372.6 163.0 L 373.9 164.7 L 375.1 166.5 L 376.4 168.2 L 377.6 170.0 L 378.8 171.8 L 379.9 173.6 L 381.1 175.4 L 382.2 177.2 L 383.3 179.1 L 384.3 180.9 L 385.3 182.8 L 386.3 184.7 L 387.3 186.6 L 388.3 188.5 L 389.2 190.5 L 390.1 192.4 L 390.9 194.4 L 391.8 196.3 L 392.6 198.3 L 393.3 200.3 L 394.1 202.3 L 394.8 204.3 L 395.5 206.3 L 396.1 208.4 L 396.8 210.4 L 397.4 212.4 L 397.9 214.5 L 398.5 216.6 L 399.0 218.6 L 399.5 220.7 L 399.9 222.8 L 400.4 224.9 L 400.7 226.9 L 401.1 229.0 L 401.4 231.1 L 401.7 233.2 L 402.0 235.4 L 402.2 237.5 L 402.4 239.6 L 402.6 241.7 L 402.8 243.8 L 402.9 245.9 L 403.0 248.0 L 403.0 250.2 L 403.1 252.3 L 403.1 254.4 L 403.0 256.5 L 403.0 258.6 L 402.9 260.7 L 402.7 262.9 L 402.6 265.0 L 402.4 267.1 L 402.2 269.2 L 401.9 271.3 L 401.6 273.4 L 401.3 275.5 L 401.0 277.5 L 400.6 279.6 L 400.2 281.7 L 399.8 283.8 L 399.4 285.8 L 398.9 287.9 L 398.4 289.9 L 397.8 291.9 L 397.2 294.0 L 396.6 296.0 L 396.0 298.0 L 395.3 300.0 L 394.7 302.0 L 393.9 304.0 L 393.1 306.2 L 457.2 329.0 L 458.1 326.3 L 459.0 323.3 L 459.9 320.4 L 460.8 317.4 L 461.6 314.5 L 462.4 311.5 L 463.2 308.5 L 463.8 305.5 L 464.5 302.5 L 465.1 299.5 L 465.7 296.5 L 466.2 293.4 L 466.7 290.4 L 467.1 287.4 L 467.5 284.3 L 467.8 281.3 L 468.1 278.2 L 468.4 275.1 L 468.6 272.1 L 468.8 269.0 L 468.9 265.9 L 469.0 262.9 L 469.0 259.8 L 469.0 256.7 L 468.9 253.7 L 468.8 250.6 L 468.7 247.6 L 468.5 244.5 L 468.3 241.4 L 468.0 238.4 L 467.7 235.3 L 467.3 232.3 L 466.9 229.3 L 466.5 226.2 L 466.0 223.2 L 465.4 220.2 L 464.8 217.2 L 464.2 214.2 L 463.6 211.2 L 462.8 208.2 L 462.1 205.3 L 461.3 202.3 L 460.5 199.4 L 459.6 196.5 L 458.7 193.6 L 457.7 190.7 L 456.7 187.8 L 455.7 184.9 L 454.6 182.1 L 453.4 179.2 L 452.3 176.4 L 451.1 173.6 L 449.8 170.8 L 448.5 168.1 L 447.2 165.3 L 445.8 162.6 L 444.4 159.9 L 443.0 157.2 L 441.5 154.5 L 440.0 151.9 L 438.4 149.3 L 436.8 146.7 L 435.2 144.1 L 433.5 141.6 L 431.8 139.1 L 430.1 136.6 L 428.3 134.1 L 426.5 131.7 L 424.7 129.2 L 422.8 126.9 L 420.9 124.5 L 418.9 122.2 L 417.0 119.9 L 414.9 117.6 L 412.9 115.3 L 410.8 113.1 L 408.7 110.9 L 406.6 108.8 L 404.4 106.7 L 402.2 104.6 L 400.0 102.5 L 397.7 100.5 L 395.5 98.5 L 393.1 96.6 L 390.8 94.6 L 388.4 92.7 L 386.0 90.9 L 383.6 89.1 L 381.2 87.3 L 378.7 85.5 L 376.2 83.8 L 373.7 82.2 L 371.2 80.5 L 368.6 78.9 L 366.0 77.4 L 363.4 75.8 L 360.8 74.3 L 358.1 72.9 L 355.5 71.5 L 352.8 70.1 L 350.1 68.8 L 347.3 67.5 L 344.6 66.2 L 341.8 65.0 L 339.0 63.9 L 336.3 62.7 L 333.4 61.6 L 330.6 60.6 L 327.8 59.6 L 324.9 58.6 L 322.1 57.7 L 319.2 56.8 L 316.3 55.9 L 313.4 55.1 L 310.5 54.4 L 307.6 53.7 L 304.6 53.0 L 301.7 52.4 L 298.8 51.8 L 295.8 51.2 L 292.8 50.7 L 289.9 50.3 L 286.9 49.8 L 283.9 49.5 L 280.9 49.1 L 278.0 48.8 L 275.0 48.6 L 272.0 48.4 L 269.0 48.2 L 266.0 48.1 L 263.0 48.0 L 260.0 48.0 L 257.0 48.0 L 254.0 48.1 L 251.0 48.2 L 248.0 48.3 L 245.0 48.5 L 242.1 48.7 L 239.1 49.0 L 236.1 49.3 L 233.1 49.7 L 230.2 50.1 L 227.2 50.5 L 224.3 51.0 L 221.3 51.5 L 218.4 52.1 L 215.5 52.7 L 212.6 53.4 L 209.7 54.1 L 206.8 54.8 L 203.9 55.6 L 201.0 56.4 L 198.2 57.3 L 195.3 58.2 L 192.5 59.1 L 189.7 60.1 L 186.9 61.1 L 184.1 62.2 L 181.4 63.3 L 178.6 64.4 L 175.9 65.6 L 173.2 66.8 L 170.5 68.1 L 167.8 69.4 L 165.1 70.7 L 162.5 72.1 L 159.9 73.5 L 157.3 75.0 L 154.7 76.5 L 152.2 78.0 L 149.7 79.5 L 147.2 81.1 L 144.7 82.8 L 142.2 84.4 L 139.8 86.1 L 137.4 87.9 L 135.0 89.6 L 132.7 91.4 L 130.3 93.3 L 128.0 95.1 L 125.8 97.0 L 123.5 99.0 L 121.3 100.9 L 119.1 102.9 L 117.0 104.9 L 114.9 107.0 L 112.8 109.1 L 110.7 111.2 L 108.7 113.3 L 106.7 115.5 L 104.7 117.7 L 102.8 120.0 L 100.9 122.2 L 99.0 124.5 L 97.2 126.8 L 95.4 129.1 L 93.6 131.5 L 91.9 133.9 L 90.2 136.3 L 88.5 138.7 L 86.9 141.2 L 85.3 143.7 L 83.7 146.2 L 82.2 148.7 L 80.7 151.2 L 79.3 153.8 L 77.9 156.4 L 76.5 159.0 L 75.2 161.6 L 73.9 164.2 L 72.7 166.9 L 71.4 169.5 L 70.3 172.2 L 69.1 174.9 L 68.0 177.7 L 67.0 180.4 L 66.0 183.1 L 65.0 185.9 L 64.1 188.7 L 63.2 191.5 L 62.3 194.3 L 61.5 197.1 L 60.7 199.9 L 60.0 202.7 L 59.3 205.6 L 58.7 208.4 L 58.1 211.3 L 57.5 214.2 L 57.0 217.0 L 56.5 219.9 L 56.0 222.8 L 55.6 225.7 L 55.3 228.6 L 55.0 231.5 L 54.7 234.4 L 54.5 237.3 L 54.3 240.2 L 54.1 243.1 L 54.0 246.0 L 54.0 248.9 L 53.9 251.9 L 54.0 254.8 L 54.0 257.7 L 54.1 260.6 L 54.3 263.5 L 54.5 266.4 L 54.7 269.3 L 55.0 272.2 L 55.3 275.1 L 55.7 277.9 L 56.1 280.8 L 56.5 283.7 L 57.0 286.5 L 57.5 289.4 L 58.1 292.2 L 58.7 295.1 L 59.3 297.9 L 60.0 300.7 L 60.7 303.5 L 61.5 306.3 L 62.3 309.1 L 63.1 311.8 L 64.0 314.6 L 64.9 317.3 L 65.9 320.1 L 66.9 322.8 L 68.0 325.5 L 69.0 328.1 L 70.2 330.8 L 71.3 333.4 L 72.5 336.1 L 73.7 338.7 L 75.0 341.3 L 76.3 343.8 L 77.7 346.4 L 79.0 348.9 L 80.5 351.4 L 81.9 353.9 L 83.4 356.4 L 84.9 358.8 L 86.5 361.2 L 88.1 363.6 L 89.7 366.0 L 91.3 368.3 L 93.0 370.6 L 94.8 372.9 L 96.5 375.2 L 98.3 377.4 L 100.1 379.7 L 102.0 381.8 L 103.9 384.0 L 105.8 386.1 L 107.7 388.2 L 109.7 390.3 L 111.7 392.4 L 113.7 394.4 L 115.8 396.4 L 117.9 398.3 L 120.0 400.2 L 122.1 402.1 L 124.3 404.0 L 126.5 405.8 L 128.7 407.6 L 130.9 409.4 L 133.2 411.1 L 135.5 412.8 L 137.8 414.4 L 140.1 416.1 L 142.5 417.6 L 144.9 419.2 L 147.3 420.7 L 149.7 422.2 L 152.2 423.7 L 154.6 425.1 L 157.1 426.4 L 159.6 427.8 L 162.1 429.1 L 164.7 430.3 L 167.2 431.6 L 169.8 432.8 L 172.4 433.9 L 175.0 435.0 L 177.6 436.1 L 180.2 437.1 L 182.9 438.1 L 185.5 439.1 L 188.2 440.0 L 190.9 440.9 L 193.6 441.7 L 196.3 442.5 L 199.0 443.3 L 201.7 444.0 L 204.5 444.7 L 207.2 445.3 L 210.0 445.9 L 212.7 446.5 L 215.5 447.0 L 218.3 447.5 L 221.0 447.9 L 223.8 448.3 L 226.6 448.7 L 229.4 449.0 L 232.2 449.2 L 235.0 449.5 L 237.8 449.7 L 240.6 449.8 L 243.4 449.9 L 246.2 450.0 L 249.0 450.0 L 251.8 450.0 L 254.6 449.9 L 257.4 449.8 L 260.1 449.7 L 262.9 449.5 L 265.7 449.3 L 268.5 449.0 L 271.3 448.7 L 274.0 448.4 L 276.8 448.0 L 279.5 447.6 L 282.3 447.1 L 285.0 446.6 L 287.7 446.1 L 290.4 445.5 L 293.1 444.9 L 295.8 444.2 L 298.5 443.5 L 301.2 442.8 L 303.8 442.0 L 306.5 441.2 L 309.1 440.3 L 311.7 439.4 L 314.3 438.5 L 316.9 437.5 L 319.5 436.5 L 322.0 435.4 L 324.5 434.3 L 327.1 433.2 L 329.5 432.0 L 332.0 430.8 L 334.5 429.6 L 336.9 428.3 L 339.3 427.0 L 341.7 425.6 L 344.1 424.3 L 346.4 422.8 L 348.7 421.4 L 351.0 419.9 L 353.3 418.3 L 355.5 416.8 L 357.7 415.2 L 359.9 413.5 L 362.0 411.8 L 364.1 410.1 L 366.2 408.4 L 368.2 406.5 L 370.2 404.7 L 372.1 402.8 L 374.0 400.8 L 375.5 398.5 Z" fill="#ffffff"/>
  <circle cx="371.7" cy="393.9" r="6.0" fill="#ffffff"/>
  <circle cx="425.1" cy="317.6" r="34.0" fill="#ffffff"/>
</svg>